<svg xmlns="http://www.w3.org/2000/svg" width="100" height="38" viewBox="0 0 100 38">
    <path fill="#333" d="M58.32,6.45a2.72,2.72,0,0,0,.89.23A16.17,16.17,0,0,0,61.4,6.5l2.18-5.1A22.52,22.52,0,0,0,61.09.48,10.12,10.12,0,0,0,59.29.1C58.73,0,58,0,57.86.27a11.79,11.79,0,0,0-.61,1.91A7.08,7.08,0,0,0,57,3.83a4.66,4.66,0,0,0,.6,1.89A1.5,1.5,0,0,0,58.32,6.45ZM76.8,20.89c.6-2.84,1.89-9.21,2.48-13.15.09-.54.21-.81-.09-.93a27.08,27.08,0,0,0-3.94-1.19c-.42-.11-.84-.3-1,.08a12.43,12.43,0,0,0-.71,2.05,4.19,4.19,0,0,0-2-1.81c-1.94-.74-3.53-.88-4.93.49s-2.15,2.87-3,6.06A16.68,16.68,0,0,0,63,16.71c-1.33,2.05-3.18,4.36-4.54,5a41.48,41.48,0,0,1,1.15-6.92c.3-1,.88-2.62,1.8-4.84.31-.75-4.09-2.22-4.82-2.08-.13,0-.35,0-.69.78a24.86,24.86,0,0,0-.84,2.43A14.31,14.31,0,0,1,49.37,15c-.08-.25-.17-.5-.25-.76a4.2,4.2,0,0,1,.57-3.82A25.76,25.76,0,0,1,51.4,8.23a.46.46,0,0,0,0-.65h0a.27.27,0,0,0-.08-.07C49.85,6.34,46.78,4.89,46.24,5a1.17,1.17,0,0,0-.5.38A11.84,11.84,0,0,0,43.3,9.69a7.52,7.52,0,0,0,0,5q.29.69.6,1.32a9.57,9.57,0,0,0-3.44.93,4.4,4.4,0,0,0-2.09,3.69c-2.2,1.78-5.71,3.65-6.48.93a9.06,9.06,0,0,1-.38-2,14.3,14.3,0,0,0,5.45-3c2.42-1.93,5.14-5.76,2.65-8.28-1.36-1.38-3.83-3.42-5.89-2.89-3.52.92-6,4.52-7.07,8s-1.45,7.52,1,10.3c2.56,2.94,6.85,2.92,11.23-1a4,4,0,0,0,.2.35,4.65,4.65,0,0,0,.62.77,8.3,8.3,0,0,0,5.3,2,6.78,6.78,0,0,0,4.84-1.92,5.09,5.09,0,0,0,.84-5.49c-.19-.51-.39-1-.58-1.48l.44-.17A11.69,11.69,0,0,0,54,14.49c-.09.36-.18.72-.26,1.07-.44,2.08-1,5.07-.21,7.13a4.24,4.24,0,0,0,4,2.26c1.91,0,4.61-3.61,6-5.65.91,2.16,2.31,3.64,5.07,2a8,8,0,0,0,3.17-2.91c-.15.26-.63,5-1.67,5.73s-3.75.16-5.28-.81c-.15-.09-1.17.87-1.2,1a8.81,8.81,0,0,0,3.95,2.59,10.66,10.66,0,0,0,5.82.09C75.6,26.26,76.17,23.87,76.8,20.89ZM32.13,14.52a18,18,0,0,1,1.24-3.17A10.08,10.08,0,0,1,35,9a2.6,2.6,0,0,1,1.72-1,4.35,4.35,0,0,1-.17,2.45,13.4,13.4,0,0,1-1.27,2.71,23.78,23.78,0,0,1-1.86,2.61c-.68.83-1.31,1.53-1.9,2.13A16.89,16.89,0,0,1,32.13,14.52Zm13.62,7.21c-.51,1.3-2.27,2.2-3.08,1.89-.49-.19-.39-2.57.09-3.51a3.28,3.28,0,0,1,1.59-1.53c.24-.1.48-.2.73-.28l.29.59A3.71,3.71,0,0,1,45.75,21.73ZM72.84,11.17a19,19,0,0,1-1.28,4.36h0a7,7,0,0,1-2.8,3.36c-.64.35-.6-2.31-.21-4.44a17.59,17.59,0,0,1,2.23-5.94c.4-.6,1.13-1.18,1.82-.19A4.72,4.72,0,0,1,72.84,11.17Zm25.82,8.08c-.27.61-2.89,4.84-4.58,5-.75.05.7-6,.89-6.74.58-2.16,1.18-4.43,1.67-6.1s1.2-3.48-.38-4.18a13.73,13.73,0,0,0-5.45-1c-.89.09-4.53,5.86-5.81,9.84a21.83,21.83,0,0,1,1.34-6.54c.17-.4.5-1-.29-1.43A15.41,15.41,0,0,0,82.62,7a.48.48,0,0,0-.56.36,47.66,47.66,0,0,0-1.87,15.93c.07,1.51.48,1.57,1.28,1.79a4.92,4.92,0,0,0,2.36.44c1.19,0,1.28-.36,1.54-2.06a30.38,30.38,0,0,1,5-13.26c.28.11-.22,2-.84,5.26a57.18,57.18,0,0,0-1.1,9.21,1.89,1.89,0,0,0,.88,1.68,9.14,9.14,0,0,0,4.58,1.09c2.52-.31,6.1-5.24,6.14-7.25C100,19.5,98.93,18.64,98.66,19.25ZM25,8.92a16.48,16.48,0,0,0-.88-4.82C23,1.42,20.1,1,17.66.84A19.64,19.64,0,0,0,9.24,2.06,17.78,17.78,0,0,0,2.61,6.58,9.34,9.34,0,0,0,.28,10.15c-.48,1.39-.36,3.52.48,4.39A2.67,2.67,0,0,0,4,15.19l.22-.14C4.94,7.33,9.67,3.86,14.52,2.88c1.49-.23,2.59-.06,3.18,1.51a17.37,17.37,0,0,1,.59,7.06,37,37,0,0,1-1.58,7.14c-1.18,3.71-4,7.68-4.7,7.56-1.14-.19-1-1-.2-5.5A82.56,82.56,0,0,1,15.9,6.18c-1.48-.12-5-.16-6.37,1.23A5.5,5.5,0,0,0,8.22,9.58,43.24,43.24,0,0,0,6.4,23a3.38,3.38,0,0,0,.26,1.37,3.09,3.09,0,0,0,.73.92A14.44,14.44,0,0,0,14,28.19c1.87.41,3.42-.94,4.73-2.14C23.3,21.86,25.38,15.37,25,8.92Z" />
    <path fill="#333" d="M31.11,33.89l-.36-.08a6.37,6.37,0,0,0,.69-.25,1.57,1.57,0,0,0,.79-1.94,1.92,1.92,0,0,0-1-1.06,4.71,4.71,0,0,0-2-.37H23.68V37.7h5.55a6.14,6.14,0,0,0,1.6-.12,2.91,2.91,0,0,0,1.41-.68,1.7,1.7,0,0,0,.09-2.36A2.31,2.31,0,0,0,31.11,33.89Zm-4.76-2H29a1.06,1.06,0,0,1,.46.13.58.58,0,0,1,.21.2h0a.57.57,0,0,1-.21.77,1.27,1.27,0,0,1-.54.14H26.39c-.11,0-.15,0-.15-.14v-1.1h.11Zm3.71,3.51a.62.62,0,0,1-.56.6,5.48,5.48,0,0,1-.57,0H26.39c-.11,0-.15,0-.15-.15V34.81c0-.11,0-.14.15-.14h2.9a1.31,1.31,0,0,1,.28,0,.59.59,0,0,1,.49.69v0Zm31.81.43c-.14,0-.18,0-.17-.18s0-.46,0-.68,0-.19.19-.19H66c.21,0,.21,0,.21-.22V33.22c0-.2,0-.2-.2-.2H61.7v-.74c0-.2,0-.2.19-.2H67.1c.13,0,.18,0,.18-.17V30.39c0-.2,0-.2-.2-.2H59.32c-.2,0-.2,0-.2.2v7.14c0,.14,0,.18.19.18h8.08V35.83ZM80.43,33.7a4.38,4.38,0,0,0-2-.71c-.82-.12-1.66-.17-2.49-.28a3.46,3.46,0,0,1-.78-.21.18.18,0,0,1-.11-.1.26.26,0,0,1,.08-.35.75.75,0,0,1,.25-.13c.26-.05.52-.1.79-.13a6.56,6.56,0,0,1,1.77.09,4.58,4.58,0,0,1,1.6.61h0a.09.09,0,0,0,.13,0h0L80.88,31H80.8a13,13,0,0,0-1.37-.62,8.37,8.37,0,0,0-2.77-.4,6.79,6.79,0,0,0-2.6.45,2.86,2.86,0,0,0-1.3,1,1.87,1.87,0,0,0,.24,2.3,3.06,3.06,0,0,0,1.08.65A13.94,13.94,0,0,0,77,35a6.52,6.52,0,0,1,1.15.17.71.71,0,0,1,.32.14.37.37,0,0,1,.13.12h0a.33.33,0,0,1-.13.45h0a2,2,0,0,1-1,.23,6.33,6.33,0,0,1-3.69-.79c-.13-.08-.28-.23-.4-.21s-.23.21-.33.32l-1,1.12.13.11A7.74,7.74,0,0,0,76,37.94a8.36,8.36,0,0,0,2,0,5.09,5.09,0,0,0,1.82-.53,2.28,2.28,0,0,0,1.27-1.79A1.85,1.85,0,0,0,80.43,33.7ZM54.06,30.19H45.69c-.13,0-.14,0-.14.15V32c0,.14.05.17.18.17h2.61c.15,0,.19,0,.19.18v5.18c0,.13,0,.18.18.18H51c.21,0,.21,0,.21-.21V32.36c0-.15.05-.19.2-.19h2.76v-2ZM38,30.2h2.6v7.49H38Z" />
</svg>
