<svg xmlns="http://www.w3.org/2000/svg" width="50" height="50" viewBox="0 0 50 50">
    <path fill="none" stroke="#E64577" stroke-width="2" stroke-linecap="round" stroke-linejoin="round" d="M22,42.12c-5.67,6.63-13.2,7.05-18.82,2.43A7.67,7.67,0,0,0,9.39,42c1.71-2.18.49-6.48,2.87-9.38a6.79,6.79,0,0,1,9.55-.94C24.7,34,24.38,39.27,22,42.12Z" />
    <path fill="none" stroke="#E64577" stroke-width="2" stroke-linecap="round" stroke-linejoin="round" d="M24,36.09a83.09,83.09,0,0,0,10.78-11C43.26,14.72,48.13,4.68,45.64,2.63s-11.39,4.68-19.89,15A81.94,81.94,0,0,0,17.16,30.1" />
    <path fill="none" stroke="#E64577" stroke-width="2" stroke-linecap="round" stroke-linejoin="round" d="M20.7,24.43A12.42,12.42,0,0,1,29,31.32" />
</svg>
